# xmcd CD database file generated by OrangeCD 6.5
#
# Track frame offsets:
#	150
#	14985
#	25991
#	40600
#	60532
#	70109
#	83348
#	97916
#	107066
#	119712
#	133088
#	144366
#	158279
#	171051
#	186448
#	198290
#	209038
#	218919
#	242497
#	256271
#	269706
#	280108
#	297836
#	318831
#	331972
#
# Disc length: 4603 seconds
#
# Revision: 0
# Processed by: cddbd v1.5.2PL0 Copyright (c) Steve Scherf et al.
# Submitted via: OrangeCD 6.5
#
DISCID=6e11f919
DTITLE=Bob Dylan - The Freewheelin' Outtakes 1962 Sessions
DYEAR=2013
DGENRE=Political Folk
TTITLE0=Going To New Orleans
TTITLE1=Sally Gal
TTITLE2=Corrina, Corrina
TTITLE3=The Death Of Emmett Till
TTITLE4=(I Heard That) Lonesome Whistle
TTITLE5=Rocks And Gravel
TTITLE6=Sally Gal
TTITLE7=Baby Please Don't Go
TTITLE8=Milk Cow's Calf's Blues
TTITLE9=Wichita (Going To Louisiana)
TTITLE10=Milk Cow's Calf's Blues
TTITLE11=Wichita (Going To Louisiana)
TTITLE12=Baby, I'm In The Mood For You
TTITLE13=That's All Right Mama
TTITLE14=Mixed-Up Confusion
TTITLE15=Mixed-Up Confusion
TTITLE16=That's All Right Mama
TTITLE17=Ballad Of Hollis Brown
TTITLE18=Whatcha Gonna Do
TTITLE19=Hero Blues
TTITLE20=Whatcha Gonna Do
TTITLE21=I Shall Be Free
TTITLE22=I Shall Be Free
TTITLE23=Hero Blues
TTITLE24=Hero Blues
EXTD=
EXTT0=
EXTT1=
EXTT2=
EXTT3=
EXTT4=
EXTT5=
EXTT6=
EXTT7=
EXTT8=
EXTT9=
EXTT10=
EXTT11=
EXTT12=
EXTT13=
EXTT14=
EXTT15=
EXTT16=
EXTT17=
EXTT18=
EXTT19=
EXTT20=
EXTT21=
EXTT22=
EXTT23=
EXTT24=
PLAYORDER=
